<svg width="640" height="417" viewBox="0 0 640 417" fill="none" xmlns="http://www.w3.org/2000/svg">
<g clip-path="url(#clip0_5370_1613)">
<path d="M450.109 117.031C450.109 130.473 440.92 136.754 428.737 136.754C416.555 136.754 407.365 130.468 407.365 116.987V92.375H423.023V115.678C423.023 119.996 425.312 122.311 428.737 122.311C432.162 122.311 434.451 119.996 434.451 115.678V92.375H450.109V117.031Z" fill="white"/>
<path d="M487.971 91.6369L487.089 107.174C485.288 106.696 482.739 106.168 480.228 106.168C475.877 106.168 473.233 107.697 473.233 112.454V135.626H457.531V92.3739H472.485V96.7354C474.901 92.8964 478.731 91.1914 484.052 91.1914C485.765 91.1914 487.35 91.4939 487.965 91.6259L487.971 91.6369Z" fill="white"/>
<path d="M539.643 113.934C539.643 126.502 531.462 136.759 519.811 136.759C514.313 136.759 510.533 134.708 507.939 131.826V135.621H492.941V72.7832H508.599V95.5202C511.149 92.9462 514.757 91.2027 519.767 91.2027C531.467 91.2027 539.643 101.46 539.643 113.94V113.934ZM508.023 113.978C508.023 118.824 511.276 122.316 515.76 122.316C520.244 122.316 523.497 118.824 523.497 113.978C523.497 109.133 520.244 105.64 515.76 105.64C511.276 105.64 508.023 109.133 508.023 113.978Z" fill="white"/>
<path d="M590.085 135.627H575.043V131.832C572.449 134.714 568.664 136.765 563.171 136.765C551.515 136.765 543.34 126.508 543.34 113.94C543.34 101.373 551.521 91.2031 563.215 91.2031C568.669 91.2031 572.449 93.2986 575.043 96.2631V92.3801H590.085V135.627ZM559.48 113.979C559.48 118.824 562.733 122.317 567.217 122.317C571.701 122.317 574.954 118.824 574.954 113.979C574.954 109.133 571.701 105.641 567.217 105.641C562.733 105.641 559.48 109.133 559.48 113.979Z" fill="white"/>
<path d="M640.001 107.477V135.626H624.344V112.366C624.344 108.043 622.277 105.733 618.846 105.733C615.725 105.733 613.392 107.785 613.392 112.454V135.626H597.734V92.3739H612.644V96.8234C615.105 93.0724 618.979 91.1914 624.427 91.1914C633.445 91.1914 639.996 97.5164 639.996 107.471L640.001 107.477Z" fill="white"/>
<path d="M640 92.9466C640 93.9036 639.202 94.6901 638.194 94.6901C637.185 94.6901 636.387 93.9036 636.387 92.9466C636.387 91.9896 637.174 91.2031 638.194 91.2031C639.213 91.2031 640 91.9841 640 92.9466ZM639.38 92.9466C639.38 92.2976 638.837 91.7586 638.194 91.7586C637.551 91.7586 636.996 92.2976 636.996 92.9466C636.996 93.5956 637.534 94.1291 638.194 94.1291C638.853 94.1291 639.38 93.5846 639.38 92.9466ZM638.271 92.1491C638.715 92.1491 638.947 92.3691 638.947 92.6936C638.947 92.9411 638.792 93.1171 638.493 93.1776L638.97 93.7386H638.41L637.994 93.1941H637.966V93.7386H637.495V92.1436H638.266L638.271 92.1491ZM637.972 92.5616V92.8091H638.266C638.382 92.8091 638.465 92.7761 638.465 92.6936C638.465 92.6111 638.382 92.5616 638.266 92.5616H637.972Z" fill="white"/>
<path d="M306.674 133.343L303.432 135.208V138.349L306.668 136.501C308.082 135.687 308.808 134.746 308.808 133.69C308.808 132.634 308.087 132.535 306.674 133.343ZM306.984 140.472L303.432 142.512V145.752L306.984 143.728C308.459 142.881 309.223 141.907 309.223 140.812C309.223 139.718 308.464 139.625 306.984 140.472ZM306.984 140.472L303.432 142.512V145.752L306.984 143.728C308.459 142.881 309.223 141.907 309.223 140.812C309.223 139.718 308.464 139.625 306.984 140.472ZM308.802 133.69C308.802 132.645 308.082 132.535 306.668 133.343L303.426 135.208V138.349L306.663 136.501C308.076 135.687 308.802 134.746 308.802 133.69ZM384.934 80.3565L373.644 86.8245H373.638L366.356 90.999L362.354 93.287L351.058 99.766V60.947L339.763 54.479L328.461 48L317.171 54.4735H317.166L305.876 60.947L317.166 67.4205H317.171L328.461 73.8885V112.708L317.171 119.181H317.166L305.876 125.649L294.58 132.122L283.29 125.649H283.285L272 119.176V145.059L283.29 151.532L294.586 158L305.881 151.532L317.171 145.059H317.177L328.467 138.585L339.763 145.059L351.058 151.532L362.354 158V132.122L373.644 125.655H373.649L384.94 119.181L373.649 112.708L384.94 106.234V80.3565H384.934ZM307.272 147.726L298.283 152.885V133.97L306.785 129.092C311.867 126.177 314.129 126.964 314.129 130.307C314.129 132.15 313.087 134.152 311.618 135.736C313.264 135.412 314.511 136.297 314.511 138.145C314.511 141.489 312.283 144.855 307.272 147.72V147.726ZM335.528 66.667C331.039 69.241 325.541 69.01 320.092 65.897C314.65 62.784 314.245 59.6325 318.74 57.0585L328.511 51.454L333.671 54.4075L324.027 59.935C322.126 61.024 322.398 62.3 324.388 63.433C326.383 64.5715 328.606 64.7255 330.501 63.6365L340.145 58.109L345.305 61.0625L335.534 66.667H335.528ZM381.664 105.151L376.654 108.021L368.844 101.867V109.963L363.701 107.015V96.532L368.717 93.661L376.526 99.8155V89.1785L381.664 86.2305V105.145V105.151ZM306.984 140.477L303.432 142.518V145.757L306.984 143.733C308.459 142.886 309.223 141.912 309.223 140.818C309.223 139.723 308.464 139.63 306.984 140.477ZM308.802 133.696C308.802 132.65 308.082 132.54 306.668 133.349L303.426 135.214V138.354L306.663 136.506C308.076 135.692 308.802 134.752 308.802 133.696ZM306.668 133.349L303.426 135.214V138.354L306.663 136.506C308.076 135.692 308.802 134.752 308.802 133.696C308.802 132.64 308.082 132.54 306.668 133.349ZM306.979 140.477L303.426 142.518V145.757L306.979 143.733C308.453 142.886 309.218 141.912 309.218 140.818C309.218 139.723 308.459 139.63 306.979 140.477ZM306.979 140.477L303.426 142.518V145.757L306.979 143.733C308.453 142.886 309.218 141.912 309.218 140.818C309.218 139.723 308.459 139.63 306.979 140.477ZM306.668 133.349L303.426 135.214V138.354L306.663 136.506C308.076 135.692 308.802 134.752 308.802 133.696C308.802 132.64 308.082 132.54 306.668 133.349Z" fill="white"/>
<path d="M373.937 134.201L375.872 138.678L371.986 140.906L373.937 134.201Z" fill="white"/>
<path d="M373.649 125.65H373.644L362.354 132.123V158.001L373.644 151.533L384.939 145.059V119.182L373.649 125.65ZM378.732 145.23L377.468 142.342L370.39 146.401L369.143 150.73L363.767 153.804L370.944 130.781L377.013 127.305L384.185 142.1L378.737 145.23H378.732Z" fill="white"/>
<path d="M384.934 80.3556L373.644 86.8236L362.354 93.2971H362.348L351.053 99.7651V86.8291L351.058 86.8236H351.053V73.8876L362.348 67.4141L373.644 73.8876L384.934 80.3556Z" fill="white"/>
<path d="M319.683 91.7573C319.683 92.9068 318.746 92.8958 317.466 92.1753L314.207 90.3273V86.9668L317.466 88.8148C318.746 89.5408 319.683 90.6133 319.683 91.7628V91.7573Z" fill="white"/>
<path d="M317.177 67.4208H317.171L305.881 60.9473V99.7718L283.29 112.713L272 119.176L283.29 125.649H283.296L294.586 132.123L305.881 125.649L317.171 119.181H317.177L328.467 112.708V73.8833L317.177 67.4153V67.4208ZM319.067 104.023L314.5 94.7118L314.212 94.5523V101.268L309.057 98.3363V79.4218L317.521 84.2343C322.354 86.9788 324.887 90.9058 324.887 94.7173C324.887 97.6323 323.191 98.7598 319.976 97.5938L325.147 107.472L319.067 104.018V104.023Z" fill="white"/>
</g>
<path d="M167.033 252.48C164.473 252.48 162.089 252.064 159.881 251.232C157.705 250.368 155.801 249.168 154.169 247.632C152.569 246.064 151.321 244.224 150.425 242.112C149.529 240 149.081 237.696 149.081 235.2C149.081 232.704 149.529 230.4 150.425 228.288C151.321 226.176 152.585 224.352 154.217 222.816C155.849 221.248 157.753 220.048 159.929 219.216C162.105 218.352 164.489 217.92 167.081 217.92C169.833 217.92 172.345 218.4 174.617 219.36C176.889 220.288 178.809 221.68 180.377 223.536L176.345 227.328C175.129 226.016 173.769 225.04 172.265 224.4C170.761 223.728 169.129 223.392 167.369 223.392C165.609 223.392 163.993 223.68 162.521 224.256C161.081 224.832 159.817 225.648 158.729 226.704C157.673 227.76 156.841 229.008 156.233 230.448C155.657 231.888 155.369 233.472 155.369 235.2C155.369 236.928 155.657 238.512 156.233 239.952C156.841 241.392 157.673 242.64 158.729 243.696C159.817 244.752 161.081 245.568 162.521 246.144C163.993 246.72 165.609 247.008 167.369 247.008C169.129 247.008 170.761 246.688 172.265 246.048C173.769 245.376 175.129 244.368 176.345 243.024L180.377 246.864C178.809 248.688 176.889 250.08 174.617 251.04C172.345 252 169.817 252.48 167.033 252.48ZM185.78 252V226.368H191.492V233.424L190.82 231.36C191.588 229.632 192.788 228.32 194.42 227.424C196.084 226.528 198.148 226.08 200.612 226.08V231.792C200.356 231.728 200.116 231.696 199.892 231.696C199.668 231.664 199.444 231.648 199.22 231.648C196.948 231.648 195.14 232.32 193.796 233.664C192.452 234.976 191.78 236.944 191.78 239.568V252H185.78ZM219.666 252V246.816L219.33 245.712V236.64C219.33 234.88 218.802 233.52 217.746 232.56C216.69 231.568 215.09 231.072 212.946 231.072C211.506 231.072 210.082 231.296 208.674 231.744C207.298 232.192 206.13 232.816 205.17 233.616L202.818 229.248C204.194 228.192 205.826 227.408 207.714 226.896C209.634 226.352 211.618 226.08 213.666 226.08C217.378 226.08 220.242 226.976 222.258 228.768C224.306 230.528 225.33 233.264 225.33 236.976V252H219.666ZM211.602 252.336C209.682 252.336 208.002 252.016 206.562 251.376C205.122 250.704 204.002 249.792 203.202 248.64C202.434 247.456 202.05 246.128 202.05 244.656C202.05 243.216 202.386 241.92 203.058 240.768C203.762 239.616 204.898 238.704 206.466 238.032C208.034 237.36 210.114 237.024 212.706 237.024H220.146V241.008H213.138C211.09 241.008 209.714 241.344 209.01 242.016C208.306 242.656 207.954 243.456 207.954 244.416C207.954 245.504 208.386 246.368 209.25 247.008C210.114 247.648 211.314 247.968 212.85 247.968C214.322 247.968 215.634 247.632 216.786 246.96C217.97 246.288 218.818 245.296 219.33 243.984L220.338 247.584C219.762 249.088 218.722 250.256 217.218 251.088C215.746 251.92 213.874 252.336 211.602 252.336ZM233.846 252V224.928C233.846 222.24 234.63 220.096 236.198 218.496C237.798 216.864 240.07 216.048 243.014 216.048C244.07 216.048 245.062 216.16 245.99 216.384C246.95 216.608 247.75 216.96 248.39 217.44L246.758 221.952C246.31 221.6 245.798 221.344 245.222 221.184C244.646 220.992 244.054 220.896 243.446 220.896C242.198 220.896 241.254 221.248 240.614 221.952C239.974 222.624 239.654 223.648 239.654 225.024V227.904L239.846 230.592V252H233.846ZM229.622 231.36V226.56H246.71V231.36H229.622ZM260.397 252.336C257.581 252.336 255.405 251.616 253.868 250.176C252.333 248.704 251.565 246.544 251.565 243.696V220.704H257.565V243.552C257.565 244.768 257.869 245.712 258.477 246.384C259.117 247.056 259.997 247.392 261.117 247.392C262.461 247.392 263.581 247.04 264.477 246.336L266.157 250.608C265.453 251.184 264.589 251.616 263.565 251.904C262.541 252.192 261.485 252.336 260.397 252.336ZM247.341 231.36V226.56H264.429V231.36H247.341ZM271.092 252V226.368H277.092V252H271.092ZM274.116 222.144C272.996 222.144 272.068 221.792 271.332 221.088C270.628 220.384 270.276 219.536 270.276 218.544C270.276 217.52 270.628 216.672 271.332 216C272.068 215.296 272.996 214.944 274.116 214.944C275.236 214.944 276.148 215.28 276.852 215.952C277.588 216.592 277.956 217.408 277.956 218.4C277.956 219.456 277.604 220.352 276.9 221.088C276.196 221.792 275.268 222.144 274.116 222.144ZM299.511 226.08C301.559 226.08 303.383 226.48 304.983 227.28C306.615 228.08 307.895 229.312 308.823 230.976C309.751 232.608 310.215 234.72 310.215 237.312V252H304.215V238.08C304.215 235.808 303.671 234.112 302.583 232.992C301.527 231.872 300.039 231.312 298.119 231.312C296.711 231.312 295.463 231.6 294.375 232.176C293.287 232.752 292.439 233.616 291.831 234.768C291.255 235.888 290.967 237.312 290.967 239.04V252H284.967V226.368H290.679V233.28L289.671 231.168C290.567 229.536 291.863 228.288 293.559 227.424C295.287 226.528 297.271 226.08 299.511 226.08ZM329.49 261.648C327.122 261.648 324.802 261.328 322.53 260.688C320.29 260.08 318.45 259.184 317.01 258L319.698 253.488C320.818 254.416 322.226 255.152 323.922 255.696C325.65 256.272 327.394 256.56 329.154 256.56C331.97 256.56 334.034 255.904 335.346 254.592C336.658 253.312 337.314 251.376 337.314 248.784V244.224L337.794 238.416L337.602 232.608V226.368H343.314V248.112C343.314 252.752 342.13 256.16 339.762 258.336C337.394 260.544 333.97 261.648 329.49 261.648ZM328.722 250.848C326.29 250.848 324.082 250.336 322.098 249.312C320.146 248.256 318.594 246.8 317.442 244.944C316.322 243.088 315.762 240.912 315.762 238.416C315.762 235.952 316.322 233.792 317.442 231.936C318.594 230.08 320.146 228.64 322.098 227.616C324.082 226.592 326.29 226.08 328.722 226.08C330.898 226.08 332.85 226.512 334.578 227.376C336.306 228.24 337.682 229.584 338.706 231.408C339.762 233.232 340.29 235.568 340.29 238.416C340.29 241.264 339.762 243.616 338.706 245.472C337.682 247.296 336.306 248.656 334.578 249.552C332.85 250.416 330.898 250.848 328.722 250.848ZM329.634 245.76C331.138 245.76 332.482 245.456 333.666 244.848C334.85 244.208 335.762 243.344 336.402 242.256C337.074 241.136 337.41 239.856 337.41 238.416C337.41 236.976 337.074 235.712 336.402 234.624C335.762 233.504 334.85 232.656 333.666 232.08C332.482 231.472 331.138 231.168 329.634 231.168C328.13 231.168 326.77 231.472 325.554 232.08C324.37 232.656 323.442 233.504 322.77 234.624C322.13 235.712 321.81 236.976 321.81 238.416C321.81 239.856 322.13 241.136 322.77 242.256C323.442 243.344 324.37 244.208 325.554 244.848C326.77 245.456 328.13 245.76 329.634 245.76ZM372.387 252.336C370.243 252.336 368.179 252.064 366.195 251.52C364.243 250.944 362.691 250.256 361.539 249.456L363.843 244.896C364.995 245.632 366.371 246.24 367.971 246.72C369.571 247.2 371.171 247.44 372.771 247.44C374.659 247.44 376.019 247.184 376.851 246.672C377.715 246.16 378.147 245.472 378.147 244.608C378.147 243.904 377.859 243.376 377.283 243.024C376.707 242.64 375.955 242.352 375.027 242.16C374.099 241.968 373.059 241.792 371.907 241.632C370.787 241.472 369.651 241.264 368.499 241.008C367.379 240.72 366.355 240.32 365.427 239.808C364.499 239.264 363.747 238.544 363.171 237.648C362.595 236.752 362.307 235.568 362.307 234.096C362.307 232.464 362.771 231.056 363.699 229.872C364.627 228.656 365.923 227.728 367.587 227.088C369.283 226.416 371.283 226.08 373.587 226.08C375.315 226.08 377.059 226.272 378.819 226.656C380.579 227.04 382.035 227.584 383.187 228.288L380.883 232.848C379.667 232.112 378.435 231.616 377.187 231.36C375.971 231.072 374.755 230.928 373.539 230.928C371.715 230.928 370.355 231.2 369.459 231.744C368.595 232.288 368.163 232.976 368.163 233.808C368.163 234.576 368.451 235.152 369.027 235.536C369.603 235.92 370.355 236.224 371.283 236.448C372.211 236.672 373.235 236.864 374.355 237.024C375.507 237.152 376.643 237.36 377.763 237.648C378.883 237.936 379.907 238.336 380.835 238.848C381.795 239.328 382.563 240.016 383.139 240.912C383.715 241.808 384.003 242.976 384.003 244.416C384.003 246.016 383.523 247.408 382.563 248.592C381.635 249.776 380.307 250.704 378.579 251.376C376.851 252.016 374.787 252.336 372.387 252.336ZM398.818 252.336C396.002 252.336 393.826 251.616 392.29 250.176C390.754 248.704 389.986 246.544 389.986 243.696V220.704H395.986V243.552C395.986 244.768 396.29 245.712 396.898 246.384C397.538 247.056 398.418 247.392 399.538 247.392C400.882 247.392 402.002 247.04 402.898 246.336L404.578 250.608C403.874 251.184 403.01 251.616 401.986 251.904C400.962 252.192 399.906 252.336 398.818 252.336ZM385.762 231.36V226.56H402.85V231.36H385.762ZM420.19 252.336C417.566 252.336 415.23 251.776 413.182 250.656C411.134 249.504 409.518 247.936 408.334 245.952C407.15 243.968 406.558 241.712 406.558 239.184C406.558 236.624 407.15 234.368 408.334 232.416C409.518 230.432 411.134 228.88 413.182 227.76C415.23 226.64 417.566 226.08 420.19 226.08C422.846 226.08 425.198 226.64 427.246 227.76C429.326 228.88 430.942 230.416 432.094 232.368C433.278 234.32 433.87 236.592 433.87 239.184C433.87 241.712 433.278 243.968 432.094 245.952C430.942 247.936 429.326 249.504 427.246 250.656C425.198 251.776 422.846 252.336 420.19 252.336ZM420.19 247.2C421.662 247.2 422.974 246.88 424.126 246.24C425.278 245.6 426.174 244.672 426.814 243.456C427.486 242.24 427.822 240.816 427.822 239.184C427.822 237.52 427.486 236.096 426.814 234.912C426.174 233.696 425.278 232.768 424.126 232.128C422.974 231.488 421.678 231.168 420.238 231.168C418.766 231.168 417.454 231.488 416.302 232.128C415.182 232.768 414.286 233.696 413.614 234.912C412.942 236.096 412.606 237.52 412.606 239.184C412.606 240.816 412.942 242.24 413.614 243.456C414.286 244.672 415.182 245.6 416.302 246.24C417.454 246.88 418.75 247.2 420.19 247.2ZM439.608 252V226.368H445.32V233.424L444.648 231.36C445.416 229.632 446.616 228.32 448.248 227.424C449.912 226.528 451.976 226.08 454.44 226.08V231.792C454.184 231.728 453.944 231.696 453.72 231.696C453.496 231.664 453.272 231.648 453.048 231.648C450.776 231.648 448.968 232.32 447.624 233.664C446.28 234.976 445.608 236.944 445.608 239.568V252H439.608ZM459.53 252V226.368H465.53V252H459.53ZM462.554 222.144C461.434 222.144 460.506 221.792 459.77 221.088C459.066 220.384 458.714 219.536 458.714 218.544C458.714 217.52 459.066 216.672 459.77 216C460.506 215.296 461.434 214.944 462.554 214.944C463.674 214.944 464.586 215.28 465.29 215.952C466.026 216.592 466.394 217.408 466.394 218.4C466.394 219.456 466.042 220.352 465.338 221.088C464.634 221.792 463.706 222.144 462.554 222.144ZM485.453 252.336C482.605 252.336 480.109 251.776 477.965 250.656C475.853 249.504 474.205 247.936 473.021 245.952C471.869 243.968 471.293 241.712 471.293 239.184C471.293 236.624 471.853 234.368 472.973 232.416C474.125 230.432 475.693 228.88 477.677 227.76C479.693 226.64 481.981 226.08 484.541 226.08C487.037 226.08 489.261 226.624 491.213 227.712C493.165 228.8 494.701 230.336 495.821 232.32C496.941 234.304 497.501 236.64 497.501 239.328C497.501 239.584 497.485 239.872 497.453 240.192C497.453 240.512 497.437 240.816 497.405 241.104H476.045V237.12H494.237L491.885 238.368C491.917 236.896 491.613 235.6 490.973 234.48C490.333 233.36 489.453 232.48 488.333 231.84C487.245 231.2 485.981 230.88 484.541 230.88C483.069 230.88 481.773 231.2 480.653 231.84C479.565 232.48 478.701 233.376 478.061 234.528C477.453 235.648 477.149 236.976 477.149 238.512V239.472C477.149 241.008 477.501 242.368 478.205 243.552C478.909 244.736 479.901 245.648 481.181 246.288C482.461 246.928 483.933 247.248 485.597 247.248C487.037 247.248 488.333 247.024 489.485 246.576C490.637 246.128 491.661 245.424 492.557 244.464L495.773 248.16C494.621 249.504 493.165 250.544 491.405 251.28C489.677 251.984 487.693 252.336 485.453 252.336ZM511.184 252.336C509.04 252.336 506.976 252.064 504.992 251.52C503.04 250.944 501.488 250.256 500.336 249.456L502.64 244.896C503.792 245.632 505.168 246.24 506.768 246.72C508.368 247.2 509.968 247.44 511.568 247.44C513.456 247.44 514.816 247.184 515.648 246.672C516.512 246.16 516.944 245.472 516.944 244.608C516.944 243.904 516.656 243.376 516.08 243.024C515.504 242.64 514.752 242.352 513.824 242.16C512.896 241.968 511.856 241.792 510.704 241.632C509.584 241.472 508.448 241.264 507.296 241.008C506.176 240.72 505.152 240.32 504.224 239.808C503.296 239.264 502.544 238.544 501.968 237.648C501.392 236.752 501.104 235.568 501.104 234.096C501.104 232.464 501.568 231.056 502.496 229.872C503.424 228.656 504.72 227.728 506.384 227.088C508.08 226.416 510.08 226.08 512.384 226.08C514.112 226.08 515.856 226.272 517.616 226.656C519.376 227.04 520.832 227.584 521.984 228.288L519.68 232.848C518.464 232.112 517.232 231.616 515.984 231.36C514.768 231.072 513.552 230.928 512.336 230.928C510.512 230.928 509.152 231.2 508.256 231.744C507.392 232.288 506.96 232.976 506.96 233.808C506.96 234.576 507.248 235.152 507.824 235.536C508.4 235.92 509.152 236.224 510.08 236.448C511.008 236.672 512.032 236.864 513.152 237.024C514.304 237.152 515.44 237.36 516.56 237.648C517.68 237.936 518.704 238.336 519.632 238.848C520.592 239.328 521.36 240.016 521.936 240.912C522.512 241.808 522.8 242.976 522.8 244.416C522.8 246.016 522.32 247.408 521.36 248.592C520.432 249.776 519.104 250.704 517.376 251.376C515.648 252.016 513.584 252.336 511.184 252.336ZM550.881 252.336C548.065 252.336 545.889 251.616 544.353 250.176C542.817 248.704 542.049 246.544 542.049 243.696V220.704H548.049V243.552C548.049 244.768 548.353 245.712 548.961 246.384C549.601 247.056 550.481 247.392 551.601 247.392C552.945 247.392 554.065 247.04 554.961 246.336L556.641 250.608C555.937 251.184 555.073 251.616 554.049 251.904C553.025 252.192 551.969 252.336 550.881 252.336ZM537.825 231.36V226.56H554.913V231.36H537.825ZM576.121 226.08C578.169 226.08 579.993 226.48 581.593 227.28C583.225 228.08 584.505 229.312 585.433 230.976C586.361 232.608 586.825 234.72 586.825 237.312V252H580.825V238.08C580.825 235.808 580.281 234.112 579.193 232.992C578.137 231.872 576.649 231.312 574.729 231.312C573.321 231.312 572.073 231.6 570.985 232.176C569.897 232.752 569.049 233.616 568.441 234.768C567.865 235.888 567.577 237.312 567.577 239.04V252H561.577V216.384H567.577V233.28L566.281 231.168C567.177 229.536 568.473 228.288 570.169 227.424C571.897 226.528 573.881 226.08 576.121 226.08ZM610.228 252V246.816L609.892 245.712V236.64C609.892 234.88 609.364 233.52 608.308 232.56C607.252 231.568 605.652 231.072 603.508 231.072C602.068 231.072 600.644 231.296 599.236 231.744C597.86 232.192 596.692 232.816 595.732 233.616L593.38 229.248C594.756 228.192 596.388 227.408 598.276 226.896C600.196 226.352 602.18 226.08 604.228 226.08C607.94 226.08 610.804 226.976 612.82 228.768C614.868 230.528 615.892 233.264 615.892 236.976V252H610.228ZM602.164 252.336C600.244 252.336 598.564 252.016 597.124 251.376C595.684 250.704 594.564 249.792 593.764 248.64C592.996 247.456 592.612 246.128 592.612 244.656C592.612 243.216 592.948 241.92 593.62 240.768C594.324 239.616 595.46 238.704 597.028 238.032C598.596 237.36 600.676 237.024 603.268 237.024H610.708V241.008H603.7C601.652 241.008 600.276 241.344 599.572 242.016C598.868 242.656 598.516 243.456 598.516 244.416C598.516 245.504 598.948 246.368 599.812 247.008C600.676 247.648 601.876 247.968 603.412 247.968C604.884 247.968 606.196 247.632 607.348 246.96C608.532 246.288 609.38 245.296 609.892 243.984L610.9 247.584C610.324 249.088 609.284 250.256 607.78 251.088C606.308 251.92 604.436 252.336 602.164 252.336ZM633.24 252.336C630.424 252.336 628.248 251.616 626.712 250.176C625.176 248.704 624.408 246.544 624.408 243.696V220.704H630.408V243.552C630.408 244.768 630.712 245.712 631.32 246.384C631.96 247.056 632.84 247.392 633.96 247.392C635.304 247.392 636.424 247.04 637.32 246.336L639 250.608C638.296 251.184 637.432 251.616 636.408 251.904C635.384 252.192 634.328 252.336 633.24 252.336ZM620.184 231.36V226.56H637.272V231.36H620.184ZM135.351 284.08C137.399 284.08 139.207 284.48 140.775 285.28C142.375 286.08 143.623 287.312 144.519 288.976C145.415 290.608 145.863 292.72 145.863 295.312V310H139.863V296.08C139.863 293.808 139.367 292.112 138.375 290.992C137.383 289.872 135.959 289.312 134.103 289.312C132.791 289.312 131.623 289.6 130.599 290.176C129.607 290.752 128.823 291.6 128.247 292.72C127.703 293.84 127.431 295.264 127.431 296.992V310H121.431V296.08C121.431 293.808 120.935 292.112 119.943 290.992C118.951 289.872 117.527 289.312 115.671 289.312C114.359 289.312 113.191 289.6 112.167 290.176C111.175 290.752 110.391 291.6 109.815 292.72C109.271 293.84 108.999 295.264 108.999 296.992V310H102.999V284.368H108.711V291.184L107.703 289.168C108.567 287.504 109.815 286.24 111.447 285.376C113.111 284.512 114.999 284.08 117.111 284.08C119.511 284.08 121.591 284.672 123.351 285.856C125.143 287.04 126.327 288.832 126.903 291.232L124.551 290.416C125.383 288.496 126.759 286.96 128.679 285.808C130.599 284.656 132.823 284.08 135.351 284.08ZM165.097 310.336C162.473 310.336 160.137 309.776 158.089 308.656C156.041 307.504 154.425 305.936 153.241 303.952C152.057 301.968 151.465 299.712 151.465 297.184C151.465 294.624 152.057 292.368 153.241 290.416C154.425 288.432 156.041 286.88 158.089 285.76C160.137 284.64 162.473 284.08 165.097 284.08C167.753 284.08 170.105 284.64 172.153 285.76C174.233 286.88 175.849 288.416 177.001 290.368C178.185 292.32 178.777 294.592 178.777 297.184C178.777 299.712 178.185 301.968 177.001 303.952C175.849 305.936 174.233 307.504 172.153 308.656C170.105 309.776 167.753 310.336 165.097 310.336ZM165.097 305.2C166.569 305.2 167.881 304.88 169.033 304.24C170.185 303.6 171.081 302.672 171.721 301.456C172.393 300.24 172.729 298.816 172.729 297.184C172.729 295.52 172.393 294.096 171.721 292.912C171.081 291.696 170.185 290.768 169.033 290.128C167.881 289.488 166.585 289.168 165.145 289.168C163.673 289.168 162.361 289.488 161.209 290.128C160.089 290.768 159.193 291.696 158.521 292.912C157.849 294.096 157.513 295.52 157.513 297.184C157.513 298.816 157.849 300.24 158.521 301.456C159.193 302.672 160.089 303.6 161.209 304.24C162.361 304.88 163.657 305.2 165.097 305.2ZM190.627 310L179.635 284.368H185.875L195.331 306.976H192.259L202.051 284.368H207.811L196.819 310H190.627ZM222.906 310.336C220.058 310.336 217.562 309.776 215.418 308.656C213.306 307.504 211.658 305.936 210.474 303.952C209.322 301.968 208.746 299.712 208.746 297.184C208.746 294.624 209.306 292.368 210.426 290.416C211.578 288.432 213.146 286.88 215.13 285.76C217.146 284.64 219.434 284.08 221.994 284.08C224.49 284.08 226.714 284.624 228.666 285.712C230.618 286.8 232.154 288.336 233.274 290.32C234.394 292.304 234.954 294.64 234.954 297.328C234.954 297.584 234.938 297.872 234.906 298.192C234.906 298.512 234.89 298.816 234.858 299.104H213.498V295.12H231.69L229.338 296.368C229.37 294.896 229.066 293.6 228.426 292.48C227.786 291.36 226.906 290.48 225.786 289.84C224.698 289.2 223.434 288.88 221.994 288.88C220.522 288.88 219.226 289.2 218.106 289.84C217.018 290.48 216.154 291.376 215.514 292.528C214.906 293.648 214.602 294.976 214.602 296.512V297.472C214.602 299.008 214.954 300.368 215.658 301.552C216.362 302.736 217.354 303.648 218.634 304.288C219.914 304.928 221.386 305.248 223.05 305.248C224.49 305.248 225.786 305.024 226.938 304.576C228.09 304.128 229.114 303.424 230.01 302.464L233.226 306.16C232.074 307.504 230.618 308.544 228.858 309.28C227.13 309.984 225.146 310.336 222.906 310.336ZM268.191 310.336C266.015 310.336 264.079 309.856 262.383 308.896C260.687 307.936 259.343 306.496 258.351 304.576C257.391 302.624 256.911 300.16 256.911 297.184C256.911 294.176 257.407 291.712 258.399 289.792C259.423 287.872 260.783 286.448 262.479 285.52C264.207 284.56 266.111 284.08 268.191 284.08C270.719 284.08 272.943 284.624 274.863 285.712C276.815 286.8 278.351 288.32 279.471 290.272C280.623 292.224 281.199 294.528 281.199 297.184C281.199 299.84 280.623 302.144 279.471 304.096C278.351 306.048 276.815 307.584 274.863 308.704C272.943 309.792 270.719 310.336 268.191 310.336ZM253.983 310V274.384H259.983V290.32L259.503 297.136L259.695 303.952V310H253.983ZM267.519 305.2C268.959 305.2 270.239 304.88 271.359 304.24C272.511 303.6 273.423 302.672 274.095 301.456C274.767 300.24 275.103 298.816 275.103 297.184C275.103 295.52 274.767 294.096 274.095 292.912C273.423 291.696 272.511 290.768 271.359 290.128C270.239 289.488 268.959 289.168 267.519 289.168C266.079 289.168 264.783 289.488 263.631 290.128C262.479 290.768 261.567 291.696 260.895 292.912C260.223 294.096 259.887 295.52 259.887 297.184C259.887 298.816 260.223 300.24 260.895 301.456C261.567 302.672 262.479 303.6 263.631 304.24C264.783 304.88 266.079 305.2 267.519 305.2ZM286.889 310V284.368H292.601V291.424L291.929 289.36C292.697 287.632 293.897 286.32 295.529 285.424C297.193 284.528 299.257 284.08 301.721 284.08V289.792C301.465 289.728 301.225 289.696 301.001 289.696C300.777 289.664 300.553 289.648 300.329 289.648C298.057 289.648 296.249 290.32 294.905 291.664C293.561 292.976 292.889 294.944 292.889 297.568V310H286.889ZM320.775 310V304.816L320.439 303.712V294.64C320.439 292.88 319.911 291.52 318.855 290.56C317.799 289.568 316.199 289.072 314.055 289.072C312.615 289.072 311.191 289.296 309.783 289.744C308.407 290.192 307.239 290.816 306.279 291.616L303.927 287.248C305.303 286.192 306.935 285.408 308.823 284.896C310.743 284.352 312.727 284.08 314.775 284.08C318.487 284.08 321.351 284.976 323.367 286.768C325.415 288.528 326.439 291.264 326.439 294.976V310H320.775ZM312.711 310.336C310.791 310.336 309.111 310.016 307.671 309.376C306.231 308.704 305.111 307.792 304.311 306.64C303.543 305.456 303.159 304.128 303.159 302.656C303.159 301.216 303.495 299.92 304.167 298.768C304.871 297.616 306.007 296.704 307.575 296.032C309.143 295.36 311.223 295.024 313.815 295.024H321.255V299.008H314.247C312.199 299.008 310.823 299.344 310.119 300.016C309.415 300.656 309.063 301.456 309.063 302.416C309.063 303.504 309.495 304.368 310.359 305.008C311.223 305.648 312.423 305.968 313.959 305.968C315.431 305.968 316.743 305.632 317.895 304.96C319.079 304.288 319.927 303.296 320.439 301.984L321.447 305.584C320.871 307.088 319.831 308.256 318.327 309.088C316.855 309.92 314.983 310.336 312.711 310.336ZM348.683 284.08C350.731 284.08 352.555 284.48 354.155 285.28C355.787 286.08 357.067 287.312 357.995 288.976C358.923 290.608 359.387 292.72 359.387 295.312V310H353.387V296.08C353.387 293.808 352.843 292.112 351.755 290.992C350.699 289.872 349.211 289.312 347.291 289.312C345.883 289.312 344.635 289.6 343.547 290.176C342.459 290.752 341.611 291.616 341.003 292.768C340.427 293.888 340.139 295.312 340.139 297.04V310H334.139V284.368H339.851V291.28L338.843 289.168C339.739 287.536 341.035 286.288 342.731 285.424C344.459 284.528 346.443 284.08 348.683 284.08ZM377.893 310.336C375.429 310.336 373.205 309.792 371.221 308.704C369.269 307.584 367.733 306.048 366.613 304.096C365.493 302.144 364.933 299.84 364.933 297.184C364.933 294.528 365.493 292.224 366.613 290.272C367.733 288.32 369.269 286.8 371.221 285.712C373.205 284.624 375.429 284.08 377.893 284.08C380.037 284.08 381.957 284.56 383.653 285.52C385.349 286.448 386.693 287.872 387.685 289.792C388.677 291.712 389.173 294.176 389.173 297.184C389.173 300.16 388.693 302.624 387.733 304.576C386.773 306.496 385.445 307.936 383.749 308.896C382.053 309.856 380.101 310.336 377.893 310.336ZM378.613 305.2C380.053 305.2 381.333 304.88 382.453 304.24C383.605 303.6 384.517 302.672 385.189 301.456C385.893 300.24 386.245 298.816 386.245 297.184C386.245 295.52 385.893 294.096 385.189 292.912C384.517 291.696 383.605 290.768 382.453 290.128C381.333 289.488 380.053 289.168 378.613 289.168C377.173 289.168 375.877 289.488 374.725 290.128C373.605 290.768 372.693 291.696 371.989 292.912C371.317 294.096 370.981 295.52 370.981 297.184C370.981 298.816 371.317 300.24 371.989 301.456C372.693 302.672 373.605 303.6 374.725 304.24C375.877 304.88 377.173 305.2 378.613 305.2ZM386.389 310V303.952L386.629 297.136L386.149 290.32V274.384H392.101V310H386.389ZM407.919 310.336C405.775 310.336 403.711 310.064 401.727 309.52C399.775 308.944 398.223 308.256 397.071 307.456L399.375 302.896C400.527 303.632 401.903 304.24 403.503 304.72C405.103 305.2 406.703 305.44 408.303 305.44C410.191 305.44 411.551 305.184 412.383 304.672C413.247 304.16 413.679 303.472 413.679 302.608C413.679 301.904 413.391 301.376 412.815 301.024C412.239 300.64 411.487 300.352 410.559 300.16C409.631 299.968 408.591 299.792 407.439 299.632C406.319 299.472 405.183 299.264 404.031 299.008C402.911 298.72 401.887 298.32 400.959 297.808C400.031 297.264 399.279 296.544 398.703 295.648C398.127 294.752 397.839 293.568 397.839 292.096C397.839 290.464 398.303 289.056 399.23 287.872C400.159 286.656 401.455 285.728 403.118 285.088C404.815 284.416 406.815 284.08 409.119 284.08C410.847 284.08 412.591 284.272 414.351 284.656C416.111 285.04 417.567 285.584 418.719 286.288L416.415 290.848C415.199 290.112 413.967 289.616 412.719 289.36C411.503 289.072 410.287 288.928 409.071 288.928C407.247 288.928 405.887 289.2 404.991 289.744C404.127 290.288 403.695 290.976 403.695 291.808C403.695 292.576 403.983 293.152 404.559 293.536C405.135 293.92 405.887 294.224 406.815 294.448C407.743 294.672 408.767 294.864 409.887 295.024C411.039 295.152 412.175 295.36 413.295 295.648C414.415 295.936 415.439 296.336 416.367 296.848C417.327 297.328 418.095 298.016 418.671 298.912C419.247 299.808 419.535 300.976 419.535 302.416C419.535 304.016 419.055 305.408 418.095 306.592C417.167 307.776 415.839 308.704 414.111 309.376C412.383 310.016 410.319 310.336 407.919 310.336ZM438.783 310V282.928C438.783 280.24 439.567 278.096 441.135 276.496C442.735 274.864 445.007 274.048 447.951 274.048C449.007 274.048 449.999 274.16 450.927 274.384C451.887 274.608 452.687 274.96 453.327 275.44L451.695 279.952C451.247 279.6 450.735 279.344 450.159 279.184C449.583 278.992 448.991 278.896 448.383 278.896C447.135 278.896 446.191 279.248 445.551 279.952C444.911 280.624 444.591 281.648 444.591 283.024V285.904L444.783 288.592V310H438.783ZM434.559 289.36V284.56H451.647V289.36H434.559ZM466.831 310.336C464.207 310.336 461.871 309.776 459.823 308.656C457.775 307.504 456.159 305.936 454.975 303.952C453.791 301.968 453.199 299.712 453.199 297.184C453.199 294.624 453.791 292.368 454.975 290.416C456.159 288.432 457.775 286.88 459.823 285.76C461.871 284.64 464.207 284.08 466.831 284.08C469.487 284.08 471.839 284.64 473.887 285.76C475.967 286.88 477.583 288.416 478.735 290.368C479.919 292.32 480.511 294.592 480.511 297.184C480.511 299.712 479.919 301.968 478.735 303.952C477.583 305.936 475.967 307.504 473.887 308.656C471.839 309.776 469.487 310.336 466.831 310.336ZM466.831 305.2C468.303 305.2 469.615 304.88 470.767 304.24C471.919 303.6 472.815 302.672 473.455 301.456C474.127 300.24 474.463 298.816 474.463 297.184C474.463 295.52 474.127 294.096 473.455 292.912C472.815 291.696 471.919 290.768 470.767 290.128C469.615 289.488 468.319 289.168 466.879 289.168C465.407 289.168 464.095 289.488 462.943 290.128C461.823 290.768 460.927 291.696 460.255 292.912C459.583 294.096 459.247 295.52 459.247 297.184C459.247 298.816 459.583 300.24 460.255 301.456C460.927 302.672 461.823 303.6 462.943 304.24C464.095 304.88 465.391 305.2 466.831 305.2ZM486.249 310V284.368H491.961V291.424L491.289 289.36C492.057 287.632 493.257 286.32 494.889 285.424C496.553 284.528 498.617 284.08 501.081 284.08V289.792C500.825 289.728 500.585 289.696 500.361 289.696C500.137 289.664 499.913 289.648 499.689 289.648C497.417 289.648 495.609 290.32 494.265 291.664C492.921 292.976 492.249 294.944 492.249 297.568V310H486.249ZM512.772 310L503.364 284.368H509.028L517.092 306.976H514.404L522.852 284.368H527.892L536.1 306.976H533.46L541.764 284.368H547.092L537.636 310H531.876L524.388 289.984H526.164L518.532 310H512.772ZM566.212 310V304.816L565.876 303.712V294.64C565.876 292.88 565.348 291.52 564.292 290.56C563.236 289.568 561.636 289.072 559.492 289.072C558.052 289.072 556.628 289.296 555.22 289.744C553.844 290.192 552.676 290.816 551.716 291.616L549.364 287.248C550.74 286.192 552.372 285.408 554.26 284.896C556.18 284.352 558.164 284.08 560.212 284.08C563.924 284.08 566.788 284.976 568.804 286.768C570.852 288.528 571.876 291.264 571.876 294.976V310H566.212ZM558.148 310.336C556.228 310.336 554.548 310.016 553.108 309.376C551.668 308.704 550.548 307.792 549.748 306.64C548.98 305.456 548.596 304.128 548.596 302.656C548.596 301.216 548.932 299.92 549.604 298.768C550.308 297.616 551.444 296.704 553.012 296.032C554.58 295.36 556.66 295.024 559.252 295.024H566.692V299.008H559.684C557.636 299.008 556.26 299.344 555.556 300.016C554.852 300.656 554.5 301.456 554.5 302.416C554.5 303.504 554.932 304.368 555.796 305.008C556.66 305.648 557.86 305.968 559.396 305.968C560.868 305.968 562.18 305.632 563.332 304.96C564.516 304.288 565.364 303.296 565.876 301.984L566.884 305.584C566.308 307.088 565.268 308.256 563.764 309.088C562.292 309.92 560.42 310.336 558.148 310.336ZM579.577 310V284.368H585.289V291.424L584.617 289.36C585.385 287.632 586.585 286.32 588.217 285.424C589.881 284.528 591.945 284.08 594.409 284.08V289.792C594.153 289.728 593.913 289.696 593.689 289.696C593.465 289.664 593.241 289.648 593.017 289.648C590.745 289.648 588.937 290.32 587.593 291.664C586.249 292.976 585.577 294.944 585.577 297.568V310H579.577ZM610.112 310.336C607.648 310.336 605.424 309.792 603.44 308.704C601.488 307.584 599.952 306.048 598.832 304.096C597.712 302.144 597.152 299.84 597.152 297.184C597.152 294.528 597.712 292.224 598.832 290.272C599.952 288.32 601.488 286.8 603.44 285.712C605.424 284.624 607.648 284.08 610.112 284.08C612.256 284.08 614.176 284.56 615.872 285.52C617.568 286.448 618.912 287.872 619.904 289.792C620.896 291.712 621.392 294.176 621.392 297.184C621.392 300.16 620.912 302.624 619.952 304.576C618.992 306.496 617.664 307.936 615.968 308.896C614.272 309.856 612.32 310.336 610.112 310.336ZM610.832 305.2C612.272 305.2 613.552 304.88 614.672 304.24C615.824 303.6 616.736 302.672 617.408 301.456C618.112 300.24 618.464 298.816 618.464 297.184C618.464 295.52 618.112 294.096 617.408 292.912C616.736 291.696 615.824 290.768 614.672 290.128C613.552 289.488 612.272 289.168 610.832 289.168C609.392 289.168 608.096 289.488 606.944 290.128C605.824 290.768 604.912 291.696 604.208 292.912C603.536 294.096 603.2 295.52 603.2 297.184C603.2 298.816 603.536 300.24 604.208 301.456C604.912 302.672 605.824 303.6 606.944 304.24C608.096 304.88 609.392 305.2 610.832 305.2ZM618.608 310V303.952L618.848 297.136L618.368 290.32V274.384H624.32V310H618.608ZM634.137 310.336C633.049 310.336 632.121 309.968 631.353 309.232C630.585 308.464 630.201 307.504 630.201 306.352C630.201 305.136 630.585 304.176 631.353 303.472C632.121 302.736 633.049 302.368 634.137 302.368C635.225 302.368 636.153 302.736 636.921 303.472C637.689 304.176 638.073 305.136 638.073 306.352C638.073 307.504 637.689 308.464 636.921 309.232C636.153 309.968 635.225 310.336 634.137 310.336Z" fill="white"/>
<path d="M185.529 349.203H193.264V350.618H190.196V360.594H193.264V362H185.529V360.594H188.526V350.618H185.529V349.203ZM196.34 362V352.49H197.799L197.913 353.896C198.054 353.697 198.206 353.516 198.37 353.352C198.54 353.182 198.719 353.035 198.906 352.912C199.188 352.725 199.492 352.581 199.82 352.481C200.154 352.376 200.506 352.32 200.875 352.314C201.373 352.314 201.824 352.385 202.229 352.525C202.639 352.666 202.987 352.886 203.274 353.185C203.562 353.483 203.781 353.864 203.934 354.327C204.092 354.784 204.171 355.329 204.171 355.962V362H202.545V355.997C202.545 355.575 202.498 355.218 202.404 354.925C202.311 354.632 202.173 354.395 201.991 354.213C201.804 354.031 201.575 353.899 201.306 353.817C201.042 353.735 200.737 353.694 200.392 353.694C200.093 353.694 199.814 353.738 199.557 353.826C199.299 353.908 199.062 354.022 198.845 354.169C198.669 354.298 198.505 354.447 198.353 354.617C198.206 354.787 198.077 354.975 197.966 355.18V362H196.34ZM213.47 359.478C213.47 359.284 213.432 359.111 213.355 358.959C213.279 358.801 213.15 358.657 212.969 358.528C212.787 358.399 212.547 358.282 212.248 358.177C211.949 358.065 211.577 357.966 211.132 357.878C210.587 357.767 210.089 357.632 209.638 357.474C209.192 357.315 208.812 357.125 208.495 356.902C208.173 356.686 207.924 356.431 207.748 356.138C207.572 355.839 207.484 355.493 207.484 355.101C207.484 354.714 207.575 354.354 207.757 354.02C207.938 353.68 208.193 353.384 208.521 353.132C208.85 352.88 209.239 352.681 209.69 352.534C210.147 352.388 210.648 352.314 211.193 352.314C211.779 352.314 212.307 352.391 212.775 352.543C213.244 352.695 213.643 352.906 213.971 353.176C214.299 353.445 214.551 353.762 214.727 354.125C214.908 354.482 214.999 354.869 214.999 355.285H213.373C213.373 355.08 213.32 354.881 213.215 354.688C213.109 354.488 212.963 354.312 212.775 354.16C212.588 354.008 212.359 353.885 212.09 353.791C211.826 353.697 211.527 353.65 211.193 353.65C210.848 353.65 210.543 353.688 210.279 353.765C210.021 353.841 209.808 353.943 209.638 354.072C209.462 354.201 209.33 354.351 209.242 354.521C209.154 354.69 209.11 354.866 209.11 355.048C209.11 355.235 209.146 355.402 209.216 355.549C209.286 355.695 209.409 355.827 209.585 355.944C209.755 356.062 209.983 356.167 210.271 356.261C210.563 356.354 210.933 356.445 211.378 356.533C211.964 356.656 212.488 356.8 212.951 356.964C213.414 357.122 213.804 357.312 214.12 357.535C214.437 357.764 214.677 358.027 214.841 358.326C215.011 358.625 215.096 358.971 215.096 359.363C215.096 359.785 214.999 360.169 214.806 360.515C214.618 360.86 214.354 361.156 214.015 361.402C213.675 361.648 213.268 361.839 212.793 361.974C212.318 362.108 211.8 362.176 211.237 362.176C210.593 362.176 210.019 362.091 209.515 361.921C209.011 361.745 208.586 361.514 208.24 361.227C207.889 360.945 207.619 360.617 207.432 360.242C207.25 359.867 207.159 359.478 207.159 359.073H208.785C208.809 359.407 208.896 359.688 209.049 359.917C209.207 360.146 209.403 360.33 209.638 360.471C209.866 360.611 210.121 360.711 210.402 360.77C210.684 360.828 210.962 360.857 211.237 360.857C211.671 360.857 212.049 360.808 212.371 360.708C212.693 360.603 212.945 360.459 213.127 360.277C213.238 360.166 213.323 360.043 213.382 359.908C213.44 359.773 213.47 359.63 213.47 359.478ZM221.811 350.188V352.49H225.432V353.747H221.811V358.915C221.811 359.284 221.857 359.589 221.951 359.829C222.045 360.069 222.174 360.26 222.338 360.4C222.502 360.547 222.689 360.649 222.9 360.708C223.117 360.767 223.346 360.796 223.586 360.796C223.762 360.796 223.943 360.787 224.131 360.77C224.318 360.746 224.503 360.72 224.685 360.69C224.86 360.661 225.024 360.632 225.177 360.603C225.335 360.567 225.464 360.538 225.563 360.515L225.792 361.666C225.657 361.748 225.493 361.821 225.3 361.886C225.106 361.944 224.896 361.994 224.667 362.035C224.438 362.082 224.195 362.117 223.938 362.141C223.686 362.164 223.434 362.176 223.182 362.176C222.76 362.176 222.364 362.117 221.995 362C221.632 361.877 221.315 361.684 221.046 361.42C220.776 361.162 220.562 360.828 220.404 360.418C220.252 360.002 220.176 359.501 220.176 358.915V353.747H217.68V352.49H220.176V350.188H221.811ZM235.021 362C234.956 361.877 234.903 361.725 234.862 361.543C234.827 361.355 234.801 361.162 234.783 360.963C234.619 361.127 234.435 361.282 234.229 361.429C234.03 361.575 233.811 361.704 233.57 361.815C233.324 361.927 233.063 362.015 232.788 362.079C232.513 362.144 232.22 362.176 231.909 362.176C231.405 362.176 230.948 362.103 230.538 361.956C230.134 361.81 229.791 361.61 229.51 361.358C229.223 361.112 229 360.819 228.842 360.479C228.689 360.134 228.613 359.762 228.613 359.363C228.613 358.842 228.716 358.385 228.921 357.992C229.132 357.6 229.428 357.271 229.809 357.008C230.189 356.75 230.646 356.557 231.18 356.428C231.719 356.299 232.319 356.234 232.981 356.234H234.757V355.487C234.757 355.2 234.704 354.942 234.599 354.714C234.493 354.485 234.344 354.289 234.15 354.125C233.957 353.967 233.72 353.844 233.438 353.756C233.163 353.668 232.853 353.624 232.507 353.624C232.185 353.624 231.895 353.665 231.637 353.747C231.385 353.829 231.171 353.938 230.995 354.072C230.819 354.207 230.682 354.368 230.582 354.556C230.488 354.737 230.441 354.928 230.441 355.127H228.807C228.812 354.781 228.9 354.441 229.07 354.107C229.246 353.773 229.498 353.472 229.826 353.202C230.148 352.938 230.541 352.725 231.004 352.561C231.473 352.396 232.003 352.314 232.595 352.314C233.134 352.314 233.635 352.382 234.098 352.517C234.561 352.646 234.962 352.842 235.302 353.105C235.636 353.375 235.899 353.709 236.093 354.107C236.286 354.506 236.383 354.972 236.383 355.505V359.926C236.383 360.242 236.412 360.579 236.471 360.937C236.529 361.288 236.611 361.596 236.717 361.859V362H235.021ZM232.146 360.761C232.463 360.761 232.759 360.72 233.034 360.638C233.31 360.556 233.562 360.447 233.79 360.312C234.013 360.178 234.206 360.025 234.37 359.855C234.534 359.68 234.663 359.498 234.757 359.311V357.386H233.245C232.683 357.386 232.19 357.436 231.769 357.535C231.353 357.629 231.021 357.775 230.775 357.975C230.6 358.115 230.465 358.282 230.371 358.476C230.283 358.669 230.239 358.889 230.239 359.135C230.239 359.369 230.277 359.586 230.354 359.785C230.436 359.984 230.556 360.154 230.714 360.295C230.872 360.441 231.071 360.556 231.312 360.638C231.552 360.72 231.83 360.761 232.146 360.761ZM239.283 357.166C239.283 356.457 239.368 355.807 239.538 355.215C239.714 354.617 239.966 354.104 240.294 353.677C240.622 353.249 241.021 352.915 241.489 352.675C241.958 352.435 242.488 352.314 243.08 352.314C243.461 352.314 243.81 352.358 244.126 352.446C244.448 352.534 244.738 352.663 244.996 352.833C245.137 352.921 245.269 353.023 245.392 353.141C245.521 353.258 245.641 353.387 245.752 353.527L245.831 352.49H247.308V361.798C247.308 362.425 247.208 362.981 247.009 363.468C246.815 363.954 246.543 364.367 246.191 364.707C245.834 365.047 245.409 365.305 244.917 365.48C244.425 365.656 243.88 365.744 243.282 365.744C243.036 365.744 242.755 365.715 242.438 365.656C242.122 365.604 241.803 365.513 241.48 365.384C241.152 365.261 240.836 365.094 240.531 364.883C240.232 364.672 239.975 364.411 239.758 364.101L240.602 363.125C240.801 363.365 241.006 363.567 241.217 363.731C241.428 363.901 241.642 364.036 241.858 364.136C242.075 364.235 242.292 364.306 242.509 364.347C242.726 364.394 242.942 364.417 243.159 364.417C243.546 364.417 243.895 364.361 244.205 364.25C244.516 364.139 244.782 363.975 245.005 363.758C245.222 363.547 245.389 363.283 245.506 362.967C245.623 362.65 245.682 362.287 245.682 361.877V361.06C245.559 361.2 245.427 361.329 245.286 361.446C245.151 361.563 245.005 361.666 244.847 361.754C244.601 361.889 244.328 361.991 244.029 362.062C243.73 362.138 243.408 362.176 243.062 362.176C242.482 362.176 241.958 362.053 241.489 361.807C241.021 361.561 240.625 361.221 240.303 360.787C239.975 360.354 239.723 359.844 239.547 359.258C239.371 358.666 239.283 358.03 239.283 357.351V357.166ZM240.909 357.351C240.909 357.813 240.956 358.253 241.05 358.669C241.149 359.085 241.305 359.451 241.516 359.768C241.721 360.084 241.984 360.336 242.307 360.523C242.629 360.705 243.016 360.796 243.467 360.796C243.748 360.796 244 360.764 244.223 360.699C244.451 360.629 244.656 360.532 244.838 360.409C245.014 360.286 245.172 360.14 245.312 359.97C245.453 359.8 245.576 359.612 245.682 359.407V355.048C245.576 354.849 245.453 354.667 245.312 354.503C245.172 354.339 245.011 354.195 244.829 354.072C244.647 353.955 244.445 353.864 244.223 353.8C244 353.729 243.754 353.694 243.484 353.694C243.027 353.694 242.635 353.788 242.307 353.976C241.984 354.163 241.721 354.415 241.516 354.731C241.305 355.054 241.149 355.426 241.05 355.848C240.956 356.264 240.909 356.703 240.909 357.166V357.351ZM256.624 352.314C256.923 352.314 257.233 352.335 257.556 352.376C257.884 352.417 258.13 352.473 258.294 352.543L258.074 354.134C257.758 354.063 257.456 354.014 257.169 353.984C256.888 353.949 256.592 353.932 256.281 353.932C255.883 353.932 255.522 353.981 255.2 354.081C254.878 354.175 254.597 354.315 254.356 354.503C254.14 354.667 253.949 354.869 253.785 355.109C253.627 355.344 253.495 355.607 253.39 355.9V362H251.755V352.49H253.302L253.372 353.765L253.381 354.002C253.768 353.48 254.23 353.07 254.77 352.771C255.314 352.467 255.933 352.314 256.624 352.314ZM267.452 362C267.388 361.877 267.335 361.725 267.294 361.543C267.259 361.355 267.232 361.162 267.215 360.963C267.051 361.127 266.866 361.282 266.661 361.429C266.462 361.575 266.242 361.704 266.002 361.815C265.756 361.927 265.495 362.015 265.22 362.079C264.944 362.144 264.651 362.176 264.341 362.176C263.837 362.176 263.38 362.103 262.97 361.956C262.565 361.81 262.223 361.61 261.941 361.358C261.654 361.112 261.432 360.819 261.273 360.479C261.121 360.134 261.045 359.762 261.045 359.363C261.045 358.842 261.147 358.385 261.353 357.992C261.563 357.6 261.859 357.271 262.24 357.008C262.621 356.75 263.078 356.557 263.611 356.428C264.15 356.299 264.751 356.234 265.413 356.234H267.188V355.487C267.188 355.2 267.136 354.942 267.03 354.714C266.925 354.485 266.775 354.289 266.582 354.125C266.389 353.967 266.151 353.844 265.87 353.756C265.595 353.668 265.284 353.624 264.938 353.624C264.616 353.624 264.326 353.665 264.068 353.747C263.816 353.829 263.603 353.938 263.427 354.072C263.251 354.207 263.113 354.368 263.014 354.556C262.92 354.737 262.873 354.928 262.873 355.127H261.238C261.244 354.781 261.332 354.441 261.502 354.107C261.678 353.773 261.93 353.472 262.258 353.202C262.58 352.938 262.973 352.725 263.436 352.561C263.904 352.396 264.435 352.314 265.026 352.314C265.565 352.314 266.066 352.382 266.529 352.517C266.992 352.646 267.394 352.842 267.733 353.105C268.067 353.375 268.331 353.709 268.524 354.107C268.718 354.506 268.814 354.972 268.814 355.505V359.926C268.814 360.242 268.844 360.579 268.902 360.937C268.961 361.288 269.043 361.596 269.148 361.859V362H267.452ZM264.578 360.761C264.895 360.761 265.19 360.72 265.466 360.638C265.741 360.556 265.993 360.447 266.222 360.312C266.444 360.178 266.638 360.025 266.802 359.855C266.966 359.68 267.095 359.498 267.188 359.311V357.386H265.677C265.114 357.386 264.622 357.436 264.2 357.535C263.784 357.629 263.453 357.775 263.207 357.975C263.031 358.115 262.896 358.282 262.803 358.476C262.715 358.669 262.671 358.889 262.671 359.135C262.671 359.369 262.709 359.586 262.785 359.785C262.867 359.984 262.987 360.154 263.146 360.295C263.304 360.441 263.503 360.556 263.743 360.638C263.983 360.72 264.262 360.761 264.578 360.761ZM272.761 352.49L272.805 353.387C272.998 353.053 273.25 352.792 273.561 352.604C273.877 352.417 274.258 352.32 274.703 352.314C274.955 352.314 275.181 352.344 275.38 352.402C275.585 352.455 275.764 352.534 275.916 352.64C276.027 352.722 276.127 352.821 276.215 352.938C276.309 353.056 276.388 353.188 276.452 353.334C276.534 353.199 276.631 353.073 276.742 352.956C276.854 352.839 276.974 352.736 277.103 352.648C277.267 352.549 277.448 352.47 277.647 352.411C277.853 352.353 278.075 352.32 278.315 352.314C278.644 352.314 278.939 352.364 279.203 352.464C279.467 352.558 279.689 352.698 279.871 352.886C280.07 353.097 280.223 353.372 280.328 353.712C280.434 354.046 280.486 354.441 280.486 354.898V362H278.939V354.881C278.939 354.682 278.916 354.506 278.869 354.354C278.822 354.201 278.755 354.075 278.667 353.976C278.573 353.882 278.456 353.812 278.315 353.765C278.181 353.718 278.022 353.694 277.841 353.694C277.647 353.694 277.48 353.721 277.34 353.773C277.199 353.826 277.082 353.896 276.988 353.984C276.895 354.078 276.821 354.187 276.769 354.31C276.716 354.427 276.681 354.559 276.663 354.705C276.663 354.734 276.663 354.764 276.663 354.793C276.663 354.816 276.663 354.846 276.663 354.881V362H275.116V354.872C275.116 354.673 275.093 354.497 275.046 354.345C275.005 354.192 274.938 354.066 274.844 353.967C274.756 353.873 274.645 353.806 274.51 353.765C274.381 353.718 274.229 353.694 274.053 353.694C273.859 353.694 273.689 353.718 273.543 353.765C273.402 353.806 273.282 353.867 273.183 353.949C273.106 354.014 273.039 354.087 272.98 354.169C272.928 354.251 272.884 354.339 272.849 354.433V362H271.302V352.49H272.761Z" fill="white"/>
<path d="M300.002 360.75C299.276 360.75 298.594 360.612 297.954 360.337C297.315 360.061 296.759 359.687 296.286 359.215C295.814 358.742 295.439 358.187 295.164 357.549C294.888 356.911 294.75 356.228 294.75 355.502C294.75 354.775 294.888 354.093 295.164 353.454C295.439 352.815 295.812 352.259 296.284 351.786C296.756 351.314 297.311 350.939 297.951 350.664C298.59 350.388 299.273 350.25 299.998 350.25C300.724 350.25 301.406 350.388 302.046 350.664C302.685 350.939 303.241 351.313 303.713 351.785C304.186 352.257 304.561 352.812 304.836 353.451C305.112 354.09 305.25 354.773 305.25 355.498C305.25 356.224 305.112 356.906 304.837 357.546C304.562 358.185 304.188 358.741 303.715 359.214C303.242 359.686 302.686 360.06 302.049 360.336C301.411 360.613 300.729 360.75 300.002 360.75Z" fill="white"/>
<path d="M321.366 360.62H327.624V362H319.74V349.203H321.366V360.62ZM330.595 352.49H335.455V360.594H338.558V362H330.595V360.594H333.829V353.905H330.595V352.49ZM333.618 349.994C333.618 349.854 333.639 349.722 333.68 349.599C333.727 349.476 333.797 349.37 333.891 349.282C333.967 349.206 334.063 349.147 334.181 349.106C334.304 349.06 334.441 349.036 334.594 349.036C334.746 349.036 334.881 349.06 334.998 349.106C335.115 349.147 335.212 349.206 335.288 349.282C335.382 349.364 335.452 349.467 335.499 349.59C335.546 349.713 335.569 349.848 335.569 349.994C335.569 350.258 335.487 350.478 335.323 350.653C335.159 350.829 334.916 350.917 334.594 350.917C334.266 350.917 334.02 350.829 333.855 350.653C333.697 350.478 333.618 350.258 333.618 349.994ZM341.15 362V352.49H342.609L342.724 353.896C342.864 353.697 343.017 353.516 343.181 353.352C343.351 353.182 343.529 353.035 343.717 352.912C343.998 352.725 344.303 352.581 344.631 352.481C344.965 352.376 345.316 352.32 345.686 352.314C346.184 352.314 346.635 352.385 347.039 352.525C347.449 352.666 347.798 352.886 348.085 353.185C348.372 353.483 348.592 353.864 348.744 354.327C348.902 354.784 348.981 355.329 348.981 355.962V362H347.355V355.997C347.355 355.575 347.309 355.218 347.215 354.925C347.121 354.632 346.983 354.395 346.802 354.213C346.614 354.031 346.386 353.899 346.116 353.817C345.853 353.735 345.548 353.694 345.202 353.694C344.903 353.694 344.625 353.738 344.367 353.826C344.109 353.908 343.872 354.022 343.655 354.169C343.479 354.298 343.315 354.447 343.163 354.617C343.017 354.787 342.888 354.975 342.776 355.18V362H341.15ZM354.809 357.562L353.613 358.713V362H351.979V348.5H353.613V356.762L354.677 355.619L357.797 352.49H359.774L355.925 356.454L360.363 362H358.298L354.809 357.562ZM366.973 362.176C366.305 362.176 365.689 362.062 365.127 361.833C364.57 361.604 364.093 361.285 363.694 360.875C363.296 360.465 362.985 359.979 362.763 359.416C362.54 358.854 362.429 358.241 362.429 357.579V357.21C362.429 356.442 362.552 355.757 362.798 355.153C363.044 354.544 363.372 354.028 363.782 353.606C364.187 353.19 364.646 352.871 365.162 352.648C365.684 352.426 366.217 352.314 366.762 352.314C367.447 352.314 368.045 352.435 368.555 352.675C369.07 352.909 369.498 353.234 369.838 353.65C370.178 354.072 370.43 354.567 370.594 355.136C370.764 355.704 370.849 356.319 370.849 356.981V357.711H364.055V357.772C364.096 358.235 364.187 358.643 364.327 358.994C364.474 359.346 364.673 359.656 364.925 359.926C365.183 360.213 365.493 360.438 365.856 360.603C366.22 360.767 366.621 360.849 367.061 360.849C367.641 360.849 368.156 360.731 368.607 360.497C369.059 360.263 369.434 359.952 369.732 359.565L370.726 360.339C370.409 360.819 369.935 361.247 369.302 361.622C368.675 361.991 367.898 362.176 366.973 362.176ZM366.762 353.65C366.434 353.65 366.123 353.712 365.83 353.835C365.537 353.952 365.273 354.125 365.039 354.354C364.805 354.588 364.605 354.875 364.441 355.215C364.283 355.549 364.172 355.936 364.107 356.375H369.223V356.296C369.223 356.003 369.167 355.689 369.056 355.355C368.944 355.016 368.789 354.723 368.59 354.477C368.391 354.23 368.139 354.031 367.834 353.879C367.535 353.727 367.178 353.65 366.762 353.65ZM373.274 357.166C373.274 356.457 373.362 355.807 373.538 355.215C373.72 354.617 373.978 354.104 374.312 353.677C374.64 353.249 375.038 352.915 375.507 352.675C375.976 352.435 376.5 352.314 377.08 352.314C377.648 352.314 378.144 352.411 378.565 352.604C378.993 352.792 379.362 353.067 379.673 353.431V348.5H381.299V362H379.805L379.734 360.998C379.418 361.385 379.04 361.678 378.601 361.877C378.161 362.076 377.648 362.176 377.062 362.176C376.488 362.176 375.967 362.053 375.498 361.807C375.035 361.561 374.64 361.221 374.312 360.787C373.983 360.354 373.729 359.844 373.547 359.258C373.365 358.666 373.274 358.03 373.274 357.351V357.166ZM374.9 357.351C374.9 357.813 374.95 358.253 375.05 358.669C375.149 359.085 375.305 359.451 375.516 359.768C375.721 360.084 375.984 360.336 376.307 360.523C376.629 360.705 377.016 360.796 377.467 360.796C378.012 360.796 378.463 360.673 378.82 360.427C379.178 360.181 379.462 359.85 379.673 359.434V355.021C379.462 354.635 379.178 354.318 378.82 354.072C378.463 353.82 378.018 353.694 377.484 353.694C377.027 353.694 376.635 353.788 376.307 353.976C375.984 354.163 375.721 354.415 375.516 354.731C375.305 355.054 375.149 355.426 375.05 355.848C374.95 356.264 374.9 356.703 374.9 357.166V357.351ZM384.393 349.203H392.127V350.618H389.06V360.594H392.127V362H384.393V360.594H387.39V350.618H384.393V349.203ZM395.203 362V352.49H396.662L396.776 353.896C396.917 353.697 397.069 353.516 397.233 353.352C397.403 353.182 397.582 353.035 397.77 352.912C398.051 352.725 398.355 352.581 398.684 352.481C399.018 352.376 399.369 352.32 399.738 352.314C400.236 352.314 400.688 352.385 401.092 352.525C401.502 352.666 401.851 352.886 402.138 353.185C402.425 353.483 402.645 353.864 402.797 354.327C402.955 354.784 403.034 355.329 403.034 355.962V362H401.408V355.997C401.408 355.575 401.361 355.218 401.268 354.925C401.174 354.632 401.036 354.395 400.854 354.213C400.667 354.031 400.438 353.899 400.169 353.817C399.905 353.735 399.601 353.694 399.255 353.694C398.956 353.694 398.678 353.738 398.42 353.826C398.162 353.908 397.925 354.022 397.708 354.169C397.532 354.298 397.368 354.447 397.216 354.617C397.069 354.787 396.94 354.975 396.829 355.18V362H395.203Z" fill="white"/>
<path d="M423.002 360.75C422.276 360.75 421.594 360.612 420.954 360.337C420.315 360.061 419.759 359.687 419.286 359.215C418.814 358.742 418.439 358.187 418.164 357.549C417.888 356.911 417.75 356.228 417.75 355.502C417.75 354.775 417.888 354.093 418.164 353.454C418.439 352.815 418.812 352.259 419.284 351.786C419.756 351.314 420.311 350.939 420.951 350.664C421.59 350.388 422.273 350.25 422.998 350.25C423.724 350.25 424.406 350.388 425.046 350.664C425.685 350.939 426.241 351.313 426.713 351.785C427.186 352.257 427.561 352.812 427.836 353.451C428.112 354.09 428.25 354.773 428.25 355.498C428.25 356.224 428.112 356.906 427.837 357.546C427.562 358.185 427.188 358.741 426.715 359.214C426.242 359.686 425.686 360.06 425.049 360.336C424.411 360.613 423.729 360.75 423.002 360.75Z" fill="white"/>
<path d="M446.3 355.628L449.218 349.203H451.063L447.082 357.228L447.056 362H445.544L445.518 357.228L441.536 349.203H443.391L446.3 355.628ZM452.883 357.157C452.883 356.472 452.982 355.836 453.182 355.25C453.381 354.658 453.668 354.146 454.043 353.712C454.412 353.278 454.863 352.938 455.396 352.692C455.93 352.44 456.53 352.314 457.198 352.314C457.872 352.314 458.476 352.44 459.009 352.692C459.548 352.938 460.005 353.278 460.38 353.712C460.749 354.146 461.033 354.658 461.232 355.25C461.432 355.836 461.531 356.472 461.531 357.157V357.351C461.531 358.036 461.432 358.672 461.232 359.258C461.033 359.844 460.749 360.354 460.38 360.787C460.005 361.221 459.551 361.561 459.018 361.807C458.484 362.053 457.884 362.176 457.216 362.176C456.542 362.176 455.936 362.053 455.396 361.807C454.863 361.561 454.412 361.221 454.043 360.787C453.668 360.354 453.381 359.844 453.182 359.258C452.982 358.672 452.883 358.036 452.883 357.351V357.157ZM454.509 357.351C454.509 357.819 454.564 358.268 454.676 358.695C454.787 359.117 454.957 359.489 455.186 359.812C455.408 360.134 455.689 360.389 456.029 360.576C456.369 360.764 456.765 360.857 457.216 360.857C457.661 360.857 458.051 360.764 458.385 360.576C458.725 360.389 459.009 360.134 459.237 359.812C459.46 359.489 459.627 359.117 459.738 358.695C459.85 358.268 459.905 357.819 459.905 357.351V357.157C459.905 356.694 459.847 356.252 459.729 355.83C459.618 355.402 459.451 355.027 459.229 354.705C459 354.383 458.716 354.128 458.376 353.94C458.042 353.747 457.649 353.65 457.198 353.65C456.747 353.65 456.354 353.747 456.021 353.94C455.687 354.128 455.408 354.383 455.186 354.705C454.957 355.027 454.787 355.402 454.676 355.83C454.564 356.252 454.509 356.694 454.509 357.157V357.351ZM470.417 362L470.32 360.69C470.004 361.159 469.608 361.525 469.134 361.789C468.659 362.047 468.111 362.176 467.49 362.176C466.992 362.176 466.541 362.1 466.137 361.947C465.732 361.789 465.387 361.546 465.1 361.218C464.812 360.89 464.59 360.474 464.432 359.97C464.279 359.46 464.203 358.851 464.203 358.142V352.49H465.829V358.159C465.829 358.675 465.87 359.103 465.952 359.442C466.034 359.782 466.157 360.052 466.321 360.251C466.485 360.456 466.685 360.6 466.919 360.682C467.159 360.764 467.435 360.805 467.745 360.805C468.108 360.805 468.434 360.764 468.721 360.682C469.008 360.594 469.257 360.474 469.468 360.321C469.644 360.198 469.796 360.052 469.925 359.882C470.06 359.706 470.171 359.516 470.259 359.311V352.49H471.894V362H470.417ZM483.592 350.592H479.637V362H478.055V350.592H474.1V349.203H483.592V350.592ZM492.038 362L491.941 360.69C491.625 361.159 491.229 361.525 490.755 361.789C490.28 362.047 489.732 362.176 489.111 362.176C488.613 362.176 488.162 362.1 487.758 361.947C487.354 361.789 487.008 361.546 486.721 361.218C486.434 360.89 486.211 360.474 486.053 359.97C485.9 359.46 485.824 358.851 485.824 358.142V352.49H487.45V358.159C487.45 358.675 487.491 359.103 487.573 359.442C487.655 359.782 487.778 360.052 487.942 360.251C488.106 360.456 488.306 360.6 488.54 360.682C488.78 360.764 489.056 360.805 489.366 360.805C489.729 360.805 490.055 360.764 490.342 360.682C490.629 360.594 490.878 360.474 491.089 360.321C491.265 360.198 491.417 360.052 491.546 359.882C491.681 359.706 491.792 359.516 491.88 359.311V352.49H493.515V362H492.038ZM504.642 357.351C504.642 357.767 504.609 358.168 504.545 358.555C504.486 358.936 504.398 359.293 504.281 359.627C504.123 360.066 503.915 360.462 503.657 360.813C503.405 361.159 503.101 361.446 502.743 361.675C502.485 361.833 502.201 361.956 501.891 362.044C501.586 362.132 501.255 362.176 500.897 362.176C500.487 362.176 500.112 362.126 499.772 362.026C499.438 361.927 499.137 361.783 498.867 361.596C498.738 361.502 498.615 361.399 498.498 361.288C498.381 361.177 498.27 361.054 498.164 360.919L498.085 362H496.591V348.5H498.217V353.51C498.352 353.34 498.501 353.188 498.665 353.053C498.829 352.912 499.005 352.792 499.192 352.692C499.427 352.569 499.685 352.476 499.966 352.411C500.247 352.347 500.552 352.314 500.88 352.314C501.29 352.314 501.668 352.37 502.014 352.481C502.359 352.593 502.673 352.748 502.954 352.947C503.206 353.135 503.432 353.363 503.631 353.633C503.83 353.896 504.006 354.192 504.158 354.521C504.316 354.89 504.437 355.3 504.519 355.751C504.601 356.196 504.642 356.668 504.642 357.166V357.351ZM503.016 357.166C503.016 356.867 502.995 356.577 502.954 356.296C502.919 356.009 502.863 355.739 502.787 355.487C502.682 355.177 502.544 354.893 502.374 354.635C502.204 354.377 501.996 354.175 501.75 354.028C501.58 353.923 501.39 353.841 501.179 353.782C500.968 353.724 500.733 353.694 500.476 353.694C500.194 353.694 499.937 353.732 499.702 353.809C499.468 353.879 499.26 353.979 499.078 354.107C498.891 354.242 498.724 354.4 498.577 354.582C498.437 354.758 498.316 354.951 498.217 355.162V359.319C498.322 359.53 498.445 359.727 498.586 359.908C498.732 360.084 498.899 360.239 499.087 360.374C499.274 360.509 499.485 360.614 499.72 360.69C499.954 360.761 500.212 360.796 500.493 360.796C500.763 360.796 501.009 360.764 501.231 360.699C501.454 360.629 501.653 360.529 501.829 360.4C502.063 360.236 502.26 360.028 502.418 359.776C502.576 359.524 502.702 359.243 502.796 358.933C502.872 358.698 502.928 358.446 502.963 358.177C502.998 357.907 503.016 357.632 503.016 357.351V357.166ZM511.594 362.176C510.926 362.176 510.311 362.062 509.748 361.833C509.191 361.604 508.714 361.285 508.315 360.875C507.917 360.465 507.606 359.979 507.384 359.416C507.161 358.854 507.05 358.241 507.05 357.579V357.21C507.05 356.442 507.173 355.757 507.419 355.153C507.665 354.544 507.993 354.028 508.403 353.606C508.808 353.19 509.268 352.871 509.783 352.648C510.305 352.426 510.838 352.314 511.383 352.314C512.068 352.314 512.666 352.435 513.176 352.675C513.691 352.909 514.119 353.234 514.459 353.65C514.799 354.072 515.051 354.567 515.215 355.136C515.385 355.704 515.47 356.319 515.47 356.981V357.711H508.676V357.772C508.717 358.235 508.808 358.643 508.948 358.994C509.095 359.346 509.294 359.656 509.546 359.926C509.804 360.213 510.114 360.438 510.478 360.603C510.841 360.767 511.242 360.849 511.682 360.849C512.262 360.849 512.777 360.731 513.229 360.497C513.68 360.263 514.055 359.952 514.354 359.565L515.347 360.339C515.03 360.819 514.556 361.247 513.923 361.622C513.296 361.991 512.52 362.176 511.594 362.176ZM511.383 353.65C511.055 353.65 510.744 353.712 510.451 353.835C510.158 353.952 509.895 354.125 509.66 354.354C509.426 354.588 509.227 354.875 509.062 355.215C508.904 355.549 508.793 355.936 508.729 356.375H513.844V356.296C513.844 356.003 513.788 355.689 513.677 355.355C513.565 355.016 513.41 354.723 513.211 354.477C513.012 354.23 512.76 354.031 512.455 353.879C512.156 353.727 511.799 353.65 511.383 353.65Z" fill="white"/>
<path d="M535.002 360.75C534.276 360.75 533.594 360.612 532.954 360.337C532.315 360.061 531.759 359.687 531.286 359.215C530.814 358.742 530.439 358.187 530.164 357.549C529.888 356.911 529.75 356.228 529.75 355.502C529.75 354.775 529.888 354.093 530.164 353.454C530.439 352.815 530.812 352.259 531.284 351.786C531.756 351.314 532.311 350.939 532.951 350.664C533.59 350.388 534.273 350.25 534.998 350.25C535.724 350.25 536.406 350.388 537.046 350.664C537.685 350.939 538.241 351.313 538.713 351.785C539.186 352.257 539.561 352.812 539.836 353.451C540.112 354.09 540.25 354.773 540.25 355.498C540.25 356.224 540.112 356.906 539.837 357.546C539.562 358.185 539.188 358.741 538.715 359.214C538.242 359.686 537.686 360.06 537.049 360.336C536.411 360.613 535.729 360.75 535.002 360.75Z" fill="white"/>
<path d="M561.648 356.349H556.322V362H554.679V349.203H562.536V350.592H556.322V354.969H561.648V356.349ZM571.589 362C571.524 361.877 571.472 361.725 571.431 361.543C571.396 361.355 571.369 361.162 571.352 360.963C571.188 361.127 571.003 361.282 570.798 361.429C570.599 361.575 570.379 361.704 570.139 361.815C569.893 361.927 569.632 362.015 569.356 362.079C569.081 362.144 568.788 362.176 568.478 362.176C567.974 362.176 567.517 362.103 567.106 361.956C566.702 361.81 566.359 361.61 566.078 361.358C565.791 361.112 565.568 360.819 565.41 360.479C565.258 360.134 565.182 359.762 565.182 359.363C565.182 358.842 565.284 358.385 565.489 357.992C565.7 357.6 565.996 357.271 566.377 357.008C566.758 356.75 567.215 356.557 567.748 356.428C568.287 356.299 568.888 356.234 569.55 356.234H571.325V355.487C571.325 355.2 571.272 354.942 571.167 354.714C571.062 354.485 570.912 354.289 570.719 354.125C570.525 353.967 570.288 353.844 570.007 353.756C569.731 353.668 569.421 353.624 569.075 353.624C568.753 353.624 568.463 353.665 568.205 353.747C567.953 353.829 567.739 353.938 567.563 354.072C567.388 354.207 567.25 354.368 567.15 354.556C567.057 354.737 567.01 354.928 567.01 355.127H565.375C565.381 354.781 565.469 354.441 565.639 354.107C565.814 353.773 566.066 353.472 566.395 353.202C566.717 352.938 567.109 352.725 567.572 352.561C568.041 352.396 568.571 352.314 569.163 352.314C569.702 352.314 570.203 352.382 570.666 352.517C571.129 352.646 571.53 352.842 571.87 353.105C572.204 353.375 572.468 353.709 572.661 354.107C572.854 354.506 572.951 354.972 572.951 355.505V359.926C572.951 360.242 572.98 360.579 573.039 360.937C573.098 361.288 573.18 361.596 573.285 361.859V362H571.589ZM568.715 360.761C569.031 360.761 569.327 360.72 569.603 360.638C569.878 360.556 570.13 360.447 570.358 360.312C570.581 360.178 570.774 360.025 570.938 359.855C571.103 359.68 571.231 359.498 571.325 359.311V357.386H569.813C569.251 357.386 568.759 357.436 568.337 357.535C567.921 357.629 567.59 357.775 567.344 357.975C567.168 358.115 567.033 358.282 566.939 358.476C566.852 358.669 566.808 358.889 566.808 359.135C566.808 359.369 566.846 359.586 566.922 359.785C567.004 359.984 567.124 360.154 567.282 360.295C567.44 360.441 567.64 360.556 567.88 360.638C568.12 360.72 568.398 360.761 568.715 360.761ZM580.202 360.857C580.495 360.857 580.779 360.811 581.055 360.717C581.336 360.623 581.585 360.491 581.802 360.321C582.019 360.157 582.191 359.964 582.32 359.741C582.455 359.513 582.525 359.267 582.531 359.003H584.069C584.063 359.425 583.952 359.829 583.735 360.216C583.524 360.597 583.24 360.931 582.883 361.218C582.525 361.511 582.115 361.745 581.652 361.921C581.189 362.091 580.706 362.176 580.202 362.176C579.481 362.176 578.852 362.047 578.312 361.789C577.773 361.531 577.325 361.183 576.968 360.743C576.604 360.31 576.332 359.809 576.15 359.24C575.969 358.666 575.878 358.062 575.878 357.43V357.061C575.878 356.434 575.969 355.833 576.15 355.259C576.332 354.685 576.604 354.178 576.968 353.738C577.325 353.305 577.773 352.959 578.312 352.701C578.852 352.443 579.481 352.314 580.202 352.314C580.765 352.314 581.28 352.405 581.749 352.587C582.224 352.763 582.634 353.003 582.979 353.308C583.319 353.618 583.586 353.984 583.779 354.406C583.973 354.828 584.069 355.279 584.069 355.76H582.531C582.525 355.473 582.461 355.203 582.338 354.951C582.221 354.693 582.06 354.468 581.854 354.274C581.649 354.081 581.403 353.929 581.116 353.817C580.835 353.706 580.53 353.65 580.202 353.65C579.698 353.65 579.273 353.753 578.928 353.958C578.588 354.157 578.312 354.418 578.102 354.74C577.891 355.068 577.738 355.435 577.645 355.839C577.557 356.243 577.513 356.65 577.513 357.061V357.43C577.513 357.846 577.557 358.259 577.645 358.669C577.738 359.073 577.891 359.437 578.102 359.759C578.307 360.087 578.579 360.354 578.919 360.559C579.265 360.758 579.692 360.857 580.202 360.857ZM591.162 362.176C590.494 362.176 589.879 362.062 589.316 361.833C588.76 361.604 588.282 361.285 587.884 360.875C587.485 360.465 587.175 359.979 586.952 359.416C586.729 358.854 586.618 358.241 586.618 357.579V357.21C586.618 356.442 586.741 355.757 586.987 355.153C587.233 354.544 587.562 354.028 587.972 353.606C588.376 353.19 588.836 352.871 589.352 352.648C589.873 352.426 590.406 352.314 590.951 352.314C591.637 352.314 592.234 352.435 592.744 352.675C593.26 352.909 593.688 353.234 594.027 353.65C594.367 354.072 594.619 354.567 594.783 355.136C594.953 355.704 595.038 356.319 595.038 356.981V357.711H588.244V357.772C588.285 358.235 588.376 358.643 588.517 358.994C588.663 359.346 588.862 359.656 589.114 359.926C589.372 360.213 589.683 360.438 590.046 360.603C590.409 360.767 590.811 360.849 591.25 360.849C591.83 360.849 592.346 360.731 592.797 360.497C593.248 360.263 593.623 359.952 593.922 359.565L594.915 360.339C594.599 360.819 594.124 361.247 593.491 361.622C592.864 361.991 592.088 362.176 591.162 362.176ZM590.951 353.65C590.623 353.65 590.312 353.712 590.02 353.835C589.727 353.952 589.463 354.125 589.229 354.354C588.994 354.588 588.795 354.875 588.631 355.215C588.473 355.549 588.361 355.936 588.297 356.375H593.412V356.296C593.412 356.003 593.356 355.689 593.245 355.355C593.134 355.016 592.979 354.723 592.779 354.477C592.58 354.23 592.328 354.031 592.023 353.879C591.725 353.727 591.367 353.65 590.951 353.65ZM605.831 357.351C605.831 357.767 605.799 358.168 605.734 358.555C605.676 358.936 605.588 359.293 605.471 359.627C605.312 360.066 605.104 360.462 604.847 360.813C604.595 361.159 604.29 361.446 603.933 361.675C603.675 361.833 603.391 361.956 603.08 362.044C602.775 362.132 602.444 362.176 602.087 362.176C601.677 362.176 601.302 362.126 600.962 362.026C600.628 361.927 600.326 361.783 600.057 361.596C599.928 361.502 599.805 361.399 599.688 361.288C599.57 361.177 599.459 361.054 599.354 360.919L599.274 362H597.78V348.5H599.406V353.51C599.541 353.34 599.69 353.188 599.854 353.053C600.019 352.912 600.194 352.792 600.382 352.692C600.616 352.569 600.874 352.476 601.155 352.411C601.437 352.347 601.741 352.314 602.069 352.314C602.479 352.314 602.857 352.37 603.203 352.481C603.549 352.593 603.862 352.748 604.144 352.947C604.396 353.135 604.621 353.363 604.82 353.633C605.02 353.896 605.195 354.192 605.348 354.521C605.506 354.89 605.626 355.3 605.708 355.751C605.79 356.196 605.831 356.668 605.831 357.166V357.351ZM604.205 357.166C604.205 356.867 604.185 356.577 604.144 356.296C604.108 356.009 604.053 355.739 603.977 355.487C603.871 355.177 603.733 354.893 603.563 354.635C603.394 354.377 603.186 354.175 602.939 354.028C602.77 353.923 602.579 353.841 602.368 353.782C602.157 353.724 601.923 353.694 601.665 353.694C601.384 353.694 601.126 353.732 600.892 353.809C600.657 353.879 600.449 353.979 600.268 354.107C600.08 354.242 599.913 354.4 599.767 354.582C599.626 354.758 599.506 354.951 599.406 355.162V359.319C599.512 359.53 599.635 359.727 599.775 359.908C599.922 360.084 600.089 360.239 600.276 360.374C600.464 360.509 600.675 360.614 600.909 360.69C601.144 360.761 601.401 360.796 601.683 360.796C601.952 360.796 602.198 360.764 602.421 360.699C602.644 360.629 602.843 360.529 603.019 360.4C603.253 360.236 603.449 360.028 603.607 359.776C603.766 359.524 603.892 359.243 603.985 358.933C604.062 358.698 604.117 358.446 604.152 358.177C604.188 357.907 604.205 357.632 604.205 357.351V357.166ZM608.125 357.157C608.125 356.472 608.225 355.836 608.424 355.25C608.623 354.658 608.91 354.146 609.285 353.712C609.654 353.278 610.105 352.938 610.639 352.692C611.172 352.44 611.772 352.314 612.44 352.314C613.114 352.314 613.718 352.44 614.251 352.692C614.79 352.938 615.247 353.278 615.622 353.712C615.991 354.146 616.275 354.658 616.475 355.25C616.674 355.836 616.773 356.472 616.773 357.157V357.351C616.773 358.036 616.674 358.672 616.475 359.258C616.275 359.844 615.991 360.354 615.622 360.787C615.247 361.221 614.793 361.561 614.26 361.807C613.727 362.053 613.126 362.176 612.458 362.176C611.784 362.176 611.178 362.053 610.639 361.807C610.105 361.561 609.654 361.221 609.285 360.787C608.91 360.354 608.623 359.844 608.424 359.258C608.225 358.672 608.125 358.036 608.125 357.351V357.157ZM609.751 357.351C609.751 357.819 609.807 358.268 609.918 358.695C610.029 359.117 610.199 359.489 610.428 359.812C610.65 360.134 610.932 360.389 611.271 360.576C611.611 360.764 612.007 360.857 612.458 360.857C612.903 360.857 613.293 360.764 613.627 360.576C613.967 360.389 614.251 360.134 614.479 359.812C614.702 359.489 614.869 359.117 614.98 358.695C615.092 358.268 615.147 357.819 615.147 357.351V357.157C615.147 356.694 615.089 356.252 614.972 355.83C614.86 355.402 614.693 355.027 614.471 354.705C614.242 354.383 613.958 354.128 613.618 353.94C613.284 353.747 612.892 353.65 612.44 353.65C611.989 353.65 611.597 353.747 611.263 353.94C610.929 354.128 610.65 354.383 610.428 354.705C610.199 355.027 610.029 355.402 609.918 355.83C609.807 356.252 609.751 356.694 609.751 357.157V357.351ZM618.936 357.157C618.936 356.472 619.035 355.836 619.234 355.25C619.434 354.658 619.721 354.146 620.096 353.712C620.465 353.278 620.916 352.938 621.449 352.692C621.982 352.44 622.583 352.314 623.251 352.314C623.925 352.314 624.528 352.44 625.062 352.692C625.601 352.938 626.058 353.278 626.433 353.712C626.802 354.146 627.086 354.658 627.285 355.25C627.484 355.836 627.584 356.472 627.584 357.157V357.351C627.584 358.036 627.484 358.672 627.285 359.258C627.086 359.844 626.802 360.354 626.433 360.787C626.058 361.221 625.604 361.561 625.07 361.807C624.537 362.053 623.937 362.176 623.269 362.176C622.595 362.176 621.988 362.053 621.449 361.807C620.916 361.561 620.465 361.221 620.096 360.787C619.721 360.354 619.434 359.844 619.234 359.258C619.035 358.672 618.936 358.036 618.936 357.351V357.157ZM620.562 357.351C620.562 357.819 620.617 358.268 620.729 358.695C620.84 359.117 621.01 359.489 621.238 359.812C621.461 360.134 621.742 360.389 622.082 360.576C622.422 360.764 622.817 360.857 623.269 360.857C623.714 360.857 624.104 360.764 624.438 360.576C624.777 360.389 625.062 360.134 625.29 359.812C625.513 359.489 625.68 359.117 625.791 358.695C625.902 358.268 625.958 357.819 625.958 357.351V357.157C625.958 356.694 625.899 356.252 625.782 355.83C625.671 355.402 625.504 355.027 625.281 354.705C625.053 354.383 624.769 354.128 624.429 353.94C624.095 353.747 623.702 353.65 623.251 353.65C622.8 353.65 622.407 353.747 622.073 353.94C621.739 354.128 621.461 354.383 621.238 354.705C621.01 355.027 620.84 355.402 620.729 355.83C620.617 356.252 620.562 356.694 620.562 357.157V357.351ZM633.051 357.562L631.855 358.713V362H630.221V348.5H631.855V356.762L632.919 355.619L636.039 352.49H638.017L634.167 356.454L638.605 362H636.54L633.051 357.562Z" fill="white"/>
<defs>
<clipPath id="clip0_5370_1613">
<rect width="368" height="110" fill="white" transform="translate(272 48)"/>
</clipPath>
</defs>
</svg>
